<?xml version="1.0" encoding="UTF-8"?><svg xmlns="http://www.w3.org/2000/svg" xmlns:xlink="http://www.w3.org/1999/xlink" fill-opacity="1" color-rendering="auto" color-interpolation="auto" text-rendering="auto" stroke="black" stroke-linecap="square" width="877" stroke-miterlimit="10" shape-rendering="auto" stroke-opacity="1" fill="black" stroke-dasharray="none" font-weight="normal" stroke-width="1" height="153" font-family="'Dialog'" font-style="normal" stroke-linejoin="miter" font-size="12px" stroke-dashoffset="0" image-rendering="auto">
  <!--Generated by ySVG 2.5-->
  <defs id="genericDefs"/>
  <g>
    <defs id="defs1">
      <clipPath clipPathUnits="userSpaceOnUse" id="clipPath1">
        <path d="M0 0 L877 0 L877 153 L0 153 L0 0 Z"/>
      </clipPath>
      <clipPath clipPathUnits="userSpaceOnUse" id="clipPath2">
        <path d="M1113 704 L1990 704 L1990 857 L1113 857 L1113 704 Z"/>
      </clipPath>
    </defs>
    <g fill="white" text-rendering="geometricPrecision" shape-rendering="geometricPrecision" transform="translate(-1113,-704)" stroke="white">
      <rect x="1113" width="877" height="153" y="704" clip-path="url(#clipPath2)" stroke="none"/>
    </g>
    <g stroke-linecap="butt" transform="matrix(1,0,0,1,-1113,-704)" fill="rgb(80,138,195)" text-rendering="geometricPrecision" shape-rendering="geometricPrecision" stroke="rgb(80,138,195)" stroke-width="3" stroke-miterlimit="1.45">
      <circle fill="none" r="61" clip-path="url(#clipPath2)" cx="1189" cy="780.25"/>
    </g>
    <g stroke-linecap="butt" font-size="18px" transform="matrix(1,0,0,1,-1113,-704)" fill="rgb(80,138,195)" text-rendering="geometricPrecision" font-family="sans-serif" shape-rendering="geometricPrecision" stroke="rgb(80,138,195)" font-weight="bold" stroke-miterlimit="1.45">
      <text x="1151.4839" xml:space="preserve" y="787.3208" clip-path="url(#clipPath2)" stroke="none">fileName</text>
    </g>
    <g fill="white" text-rendering="geometricPrecision" shape-rendering="geometricPrecision" transform="matrix(1,0,0,1,-1113,-704)" stroke="white">
      <rect x="1225.0205" y="732.25" clip-path="url(#clipPath2)" width="102.3484" rx="4" ry="4" height="28" stroke="none"/>
    </g>
    <g stroke-linecap="butt" transform="matrix(1,0,0,1,-1113,-704)" fill="rgb(80,138,195)" text-rendering="geometricPrecision" shape-rendering="geometricPrecision" stroke="rgb(80,138,195)" stroke-width="3" stroke-miterlimit="1.45">
      <rect x="1225.0205" y="732.25" clip-path="url(#clipPath2)" fill="none" width="102.3484" rx="4" ry="4" height="28"/>
    </g>
    <g stroke-linecap="butt" font-size="18px" transform="matrix(1,0,0,1,-1113,-704)" fill="rgb(80,138,195)" text-rendering="geometricPrecision" font-family="sans-serif" shape-rendering="geometricPrecision" stroke="rgb(80,138,195)" font-weight="bold" stroke-miterlimit="1.45">
      <text x="1236.1913" xml:space="preserve" y="753.3208" clip-path="url(#clipPath2)" stroke="none">:Text:File</text>
    </g>
    <g fill="white" text-rendering="geometricPrecision" shape-rendering="geometricPrecision" transform="matrix(1,0,0,1,-1113,-704)" stroke="white">
      <rect x="1448.6311" y="788.8135" clip-path="url(#clipPath2)" width="169.3033" rx="4" ry="4" height="28" stroke="none"/>
    </g>
    <g stroke-linecap="butt" transform="matrix(1,0,0,1,-1113,-704)" fill="rgb(80,138,195)" text-rendering="geometricPrecision" shape-rendering="geometricPrecision" stroke="rgb(80,138,195)" stroke-width="3" stroke-miterlimit="1.45">
      <rect x="1448.6311" y="788.8135" clip-path="url(#clipPath2)" fill="none" width="169.3033" rx="4" ry="4" height="28"/>
    </g>
    <g stroke-linecap="butt" font-size="18px" transform="matrix(1,0,0,1,-1113,-704)" fill="rgb(80,138,195)" text-rendering="geometricPrecision" font-family="sans-serif" shape-rendering="geometricPrecision" stroke="rgb(80,138,195)" font-weight="bold" stroke-miterlimit="1.45">
      <text x="1457.7804" xml:space="preserve" y="809.8843" clip-path="url(#clipPath2)" stroke="none">:CONTAINS_LINE</text>
    </g>
    <g stroke-linecap="butt" transform="matrix(1,0,0,1,-1113,-704)" fill="rgb(80,138,195)" text-rendering="geometricPrecision" shape-rendering="geometricPrecision" stroke="rgb(80,138,195)" stroke-width="3" stroke-miterlimit="1.45">
      <circle fill="none" r="61" clip-path="url(#clipPath2)" cx="1848.2418" cy="780.25"/>
    </g>
    <g stroke-linecap="butt" font-size="18px" transform="matrix(1,0,0,1,-1113,-704)" fill="rgb(80,138,195)" text-rendering="geometricPrecision" font-family="sans-serif" shape-rendering="geometricPrecision" stroke="rgb(80,138,195)" font-weight="bold" stroke-miterlimit="1.45">
      <text x="1825.2277" xml:space="preserve" y="776.2949" clip-path="url(#clipPath2)" stroke="none">value</text>
      <text x="1798.733" xml:space="preserve" y="798.3467" clip-path="url(#clipPath2)" stroke="none">lineNumber</text>
    </g>
    <g fill="white" text-rendering="geometricPrecision" shape-rendering="geometricPrecision" transform="matrix(1,0,0,1,-1113,-704)" stroke="white">
      <rect x="1872.3156" y="724.6803" clip-path="url(#clipPath2)" width="102.3484" rx="4" ry="4" height="28" stroke="none"/>
    </g>
    <g stroke-linecap="butt" transform="matrix(1,0,0,1,-1113,-704)" fill="rgb(80,138,195)" text-rendering="geometricPrecision" shape-rendering="geometricPrecision" stroke="rgb(80,138,195)" stroke-width="3" stroke-miterlimit="1.45">
      <rect x="1872.3156" y="724.6803" clip-path="url(#clipPath2)" fill="none" width="102.3484" rx="4" ry="4" height="28"/>
    </g>
    <g stroke-linecap="butt" font-size="18px" transform="matrix(1,0,0,1,-1113,-704)" fill="rgb(80,138,195)" text-rendering="geometricPrecision" font-family="sans-serif" shape-rendering="geometricPrecision" stroke="rgb(80,138,195)" font-weight="bold" stroke-miterlimit="1.45">
      <text x="1880.4893" xml:space="preserve" y="745.7511" clip-path="url(#clipPath2)" stroke="none">:Text:Line</text>
    </g>
    <g stroke-linecap="butt" transform="matrix(1,0,0,1,-1113,-704)" fill="rgb(80,138,195)" text-rendering="geometricPrecision" shape-rendering="geometricPrecision" stroke="rgb(80,138,195)" stroke-width="3" stroke-miterlimit="1.45">
      <path fill="none" d="M1250 780.25 L1777.2418 780.25" clip-path="url(#clipPath2)"/>
      <path d="M1787.2418 780.25 L1772.2418 774 L1775.9918 780.25 L1772.2418 786.5 Z" clip-path="url(#clipPath2)" stroke="none"/>
    </g>
  </g>
</svg>
